<?xml version="1.0" encoding="UTF-8"?><svg id="Layer_1" xmlns="http://www.w3.org/2000/svg" viewBox="0 0 200 200"><defs><style>.cls-1{fill:none;}.cls-1,.cls-2,.cls-3,.cls-4{stroke-width:0px;}.cls-2{fill:#ecdf92;}.cls-3{fill:#0d2f2d;}.cls-4{fill:#deca17;}</style></defs><rect class="cls-3" x="0" width="200" height="200"/><polygon class="cls-2" points="127.71 66.02 122.6 58.18 117.49 66.02 112.39 73.87 112.39 94.03 87.61 94.03 87.61 73.87 82.51 66.02 77.4 58.18 72.29 66.02 67.19 73.87 67.19 94.03 67.19 115.07 67.19 138.14 72.29 145.99 77.4 153.84 82.51 145.99 87.61 138.14 87.61 115.07 112.39 115.07 112.39 138.14 117.49 145.99 122.6 153.84 127.71 145.99 132.81 138.14 132.81 115.07 132.81 94.03 132.81 73.87 127.71 66.02"/><polygon class="cls-4" points="77.4 58.18 67.19 73.87 67.19 115.07 67.19 115.07 67.19 115.07 112.39 115.07 119.88 106.01 77.4 106.01 77.4 58.18"/><polygon class="cls-4" points="122.6 58.18 122.6 94.03 87.61 94.03 79.73 103.09 122.6 103.09 122.6 103.09 122.6 103.09 122.6 153.84 132.81 138.14 132.81 103.09 132.81 103.09 132.81 73.87 122.6 58.18"/><polygon class="cls-1" points="127.71 66.02 122.6 58.18 117.49 66.02 112.39 73.87 112.39 94.03 87.61 94.03 87.61 73.87 82.51 66.02 77.4 58.18 72.29 66.02 67.19 73.87 67.19 94.03 67.19 115.07 67.19 138.14 72.29 145.99 77.4 153.84 82.51 145.99 87.61 138.14 87.61 115.07 112.39 115.07 112.39 138.14 117.49 145.99 122.6 153.84 127.71 145.99 132.81 138.14 132.81 115.07 132.81 94.03 132.81 73.87 127.71 66.02"/><path class="cls-4" d="M92.82,169.86c-17.21-1.75-33.12-9.79-44.8-22.64-11.76-12.94-18.24-29.71-18.24-47.21s6.48-34.27,18.24-47.21c11.68-12.85,27.59-20.9,44.8-22.64l.16,1.54c-16.83,1.71-32.38,9.57-43.81,22.15-11.5,12.66-17.84,29.06-17.84,46.17s6.34,33.52,17.84,46.18c11.43,12.57,26.99,20.44,43.81,22.14l-.16,1.54Z"/><path class="cls-4" d="M107.18,169.86l-.16-1.54c16.83-1.71,32.38-9.57,43.81-22.15,11.5-12.66,17.84-29.06,17.84-46.17s-6.34-33.52-17.84-46.18c-11.43-12.57-26.99-20.44-43.82-22.14l.16-1.54c17.21,1.75,33.12,9.79,44.81,22.64,11.77,12.94,18.25,29.71,18.25,47.22s-6.48,34.27-18.24,47.21c-11.68,12.85-27.59,20.9-44.8,22.64Z"/><path class="cls-4" d="M107.19,169.82l-.17-1.54c31.73-3.53,55.65-30.31,55.65-62.28,0-34.56-28.11-62.67-62.67-62.67s-62.67,28.11-62.67,62.67c0,31.97,23.92,58.75,55.65,62.28l-.17,1.54c-32.51-3.62-57.03-31.06-57.03-63.82,0-35.41,28.81-64.21,64.21-64.21s64.21,28.81,64.21,64.21c0,32.76-24.52,60.19-57.03,63.82Z"/><path class="cls-4" d="M100,38.43c-4.34,0-7.88-3.53-7.88-7.88s3.53-7.88,7.88-7.88,7.88,3.53,7.88,7.88-3.53,7.88-7.88,7.88ZM100,24.22c-3.49,0-6.33,2.84-6.33,6.33s2.84,6.33,6.33,6.33,6.33-2.84,6.33-6.33-2.84-6.33-6.33-6.33Z"/><path class="cls-4" d="M100,177.32c-4.34,0-7.88-3.53-7.88-7.88s3.53-7.88,7.88-7.88,7.88,3.53,7.88,7.88-3.53,7.88-7.88,7.88ZM100,163.12c-3.49,0-6.33,2.84-6.33,6.33s2.84,6.33,6.33,6.33,6.33-2.84,6.33-6.33-2.84-6.33-6.33-6.33Z"/></svg>