<?xml version="1.0" encoding="utf-8"?>
<!-- Generator: Adobe Illustrator 28.3.0, SVG Export Plug-In . SVG Version: 6.00 Build 0)  -->
<svg version="1.1" id="Layer_1" xmlns="http://www.w3.org/2000/svg" xmlns:xlink="http://www.w3.org/1999/xlink" x="0px" y="0px"
	 viewBox="0 0 200 200" style="enable-background:new 0 0 200 200;" xml:space="preserve">
<style type="text/css">
	.st0{fill:#ECDF92;}
	.st1{fill:#DECA17;}
	.st2{fill:none;}
	.st3{fill:#102D2C;}
	.st4{fill:none;stroke:#DECA17;stroke-width:0.5;stroke-miterlimit:10;}
</style>
<circle class="st3" cx="100.1" cy="100.1" r="96.9"/>
<g>
	<g>
		<g>
			<polygon class="st0" points="130.8,62.4 125.1,53.7 119.5,62.4 113.8,71.1 113.8,93.5 86.4,93.5 86.4,71.1 80.7,62.4 75,53.7 
				69.4,62.4 63.7,71.1 63.7,93.5 63.7,116.8 63.7,142.3 69.4,151 75,159.7 80.7,151 86.4,142.3 86.4,116.8 113.8,116.8 
				113.8,142.3 119.5,151 125.1,159.7 130.8,151 136.4,142.3 136.4,116.8 136.4,93.5 136.4,71.1 			"/>
		</g>
		<g>
			<g>
				<polygon class="st1" points="75,53.7 63.7,71.1 63.7,116.8 63.7,116.8 63.7,116.8 113.8,116.8 122.1,106.7 75,106.7 				"/>
			</g>
			<g>
				<polygon class="st1" points="125.1,53.7 125.1,93.5 86.4,93.5 77.6,103.5 125.1,103.5 125.1,103.5 125.1,103.5 125.1,159.7 
					136.4,142.3 136.4,103.5 136.4,103.5 136.4,71.1 				"/>
			</g>
		</g>
		<g>
			<polygon class="st2" points="130.8,62.4 125.1,53.7 119.5,62.4 113.8,71.1 113.8,93.5 86.4,93.5 86.4,71.1 80.7,62.4 75,53.7 
				69.4,62.4 63.7,71.1 63.7,93.5 63.7,116.8 63.7,142.3 69.4,151 75,159.7 80.7,151 86.4,142.3 86.4,116.8 113.8,116.8 
				113.8,142.3 119.5,151 125.1,159.7 130.8,151 136.4,142.3 136.4,116.8 136.4,93.5 136.4,71.1 			"/>
		</g>
	</g>
	<g>
		<path class="st1" d="M92.1,177.5c-19.1-1.9-36.7-10.8-49.6-25.1c-13-14.3-20.2-32.9-20.2-52.3c0-19.4,7.2-38,20.2-52.3
			c12.9-14.2,30.6-23.2,49.6-25.1l0.2,1.7C73.7,26.3,56.4,35,43.8,48.9C31,62.9,24,81.1,24,100.1c0,19,7,37.1,19.8,51.2
			c12.7,13.9,29.9,22.6,48.5,24.5L92.1,177.5z"/>
	</g>
	<g>
		<path class="st1" d="M108,177.5l-0.2-1.7c18.6-1.9,35.9-10.6,48.5-24.5c12.7-14,19.8-32.2,19.8-51.2c0-19-7-37.1-19.8-51.2
			c-12.7-13.9-29.9-22.6-48.6-24.5l0.2-1.7c19.1,1.9,36.7,10.8,49.6,25.1c13,14.3,20.2,32.9,20.2,52.3c0,19.4-7.2,38-20.2,52.3
			C144.7,166.6,127.1,175.6,108,177.5z"/>
	</g>
	<g>
		<path class="st1" d="M108.1,177.5l-0.2-1.7c35.2-3.9,61.7-33.6,61.7-69c0-38.3-31.1-69.4-69.4-69.4s-69.4,31.1-69.4,69.4
			c0,35.4,26.5,65.1,61.7,69l-0.2,1.7c-36-4-63.2-34.4-63.2-70.7c0-39.2,31.9-71.2,71.2-71.2s71.2,31.9,71.2,71.2
			C171.2,143,144.1,173.4,108.1,177.5z"/>
	</g>
	<g>
		<path class="st1" d="M100.1,31.9c-4.8,0-8.7-3.9-8.7-8.7c0-4.8,3.9-8.7,8.7-8.7c4.8,0,8.7,3.9,8.7,8.7
			C108.8,27.9,104.9,31.9,100.1,31.9z M100.1,16.1c-3.9,0-7,3.1-7,7s3.1,7,7,7c3.9,0,7-3.1,7-7S104,16.1,100.1,16.1z"/>
	</g>
	<g>
		<path class="st1" d="M100.1,185.8c-4.8,0-8.7-3.9-8.7-8.7s3.9-8.7,8.7-8.7c4.8,0,8.7,3.9,8.7,8.7S104.9,185.8,100.1,185.8z
			 M100.1,170c-3.9,0-7,3.1-7,7s3.1,7,7,7c3.9,0,7-3.1,7-7S104,170,100.1,170z"/>
	</g>
</g>
</svg>
